<?xml version="1.0" standalone="no"?>
<!DOCTYPE svg PUBLIC "-//W3C//DTD SVG 20010904//EN"
"http://www.w3.org/TR/2001/REC-SVG-20010904/DTD/svg10.dtd">
<svg version="1.0" xmlns="http://www.w3.org/2000/svg"
width="512.000000pt" height="512.000000pt" viewBox="0 0 512.000000 512.000000"
preserveAspectRatio="xMidYMid meet">
<metadata>
Created by potrace 1.16, written by Peter Selinger 2001-2019
</metadata>
<g transform="translate(0.000000,512.000000) scale(0.100000,-0.100000)"
fill="#000000" stroke="none">
<path d="M3033 3866 c-17 -8 -39 -26 -48 -40 l-17 -25 -706 -3 c-636 -3 -711
-5 -742 -20 -33 -15 25 -16 995 -17 l1030 -1 57 -24 c112 -46 202 -136 245
-246 17 -42 18 -112 21 -996 2 -887 1 -952 -14 -958 -10 -4 -21 -1 -26 6 -10
16 -11 51 0 45 4 -3 4 95 1 216 -4 122 -5 517 -4 877 2 360 -1 679 -6 709 -18
110 -87 205 -191 262 l-63 34 -970 3 c-1009 3 -1124 0 -1110 -36 4 -12 3 -13
-10 -2 -9 7 -19 9 -23 5 -4 -4 -1 -10 5 -12 8 -3 -10 -25 -42 -55 -66 -60
-114 -150 -122 -231 -3 -31 -10 -57 -15 -57 -4 0 -6 11 -2 25 4 15 2 25 -5 25
-6 0 -10 3 -10 8 1 4 0 21 -2 37 -2 17 -6 -85 -9 -225 -6 -319 -5 -1537 2
-1605 5 -53 44 -155 59 -155 5 0 2 18 -7 40 -9 23 -14 44 -10 47 3 3 1 12 -5
20 -9 10 -8 13 2 13 8 0 22 -21 31 -47 21 -58 104 -154 164 -189 94 -55 75
-54 919 -55 429 0 776 -2 770 -5 -5 -2 -244 -5 -530 -7 -286 -2 -529 -6 -540
-9 -11 -4 -96 -8 -190 -9 -143 -2 -158 -4 -95 -10 50 -5 18 -6 -95 -4 -178 3
-220 11 -294 57 -39 24 -79 25 -123 2 -68 -35 -17 -65 150 -88 96 -14 259 -16
1105 -16 929 0 1245 6 1527 30 290 25 458 68 468 122 2 9 -10 24 -30 35 -79
47 -249 73 -490 73 -82 0 -148 1 -148 3 0 1 10 27 23 57 l22 55 0 955 0 955
-23 56 c-68 169 -226 291 -397 306 -53 5 -64 10 -91 42 l-32 36 -163 2 c-124
2 -172 -1 -196 -11z m351 -42 c9 -8 16 -17 16 -20 0 -2 -86 -4 -192 -4 -190 0
-191 0 -173 20 17 18 31 20 176 20 130 0 160 -3 173 -16z m206 -205 c67 -31
136 -99 170 -165 23 -45 25 -62 28 -203 l3 -154 -26 17 -26 17 3 -48 c3 -41 6
-48 26 -51 l22 -3 -2 -747 -3 -747 -29 -58 c-35 -68 -93 -124 -168 -164 l-53
-28 -960 0 -960 0 -60 28 c-117 54 -197 160 -214 279 -4 35 -6 455 -4 933 l4
870 23 50 c41 91 107 152 199 186 50 18 91 18 1012 16 l960 -2 55 -26z m-2307
-620 c-4 -4 -7 5 -7 22 2 42 6 48 11 15 3 -16 1 -32 -4 -37z m7 -385 c0 -75
-4 -123 -9 -119 -5 3 -12 -9 -14 -27 -3 -18 -3 30 0 106 4 128 9 166 19 166 2
0 4 -57 4 -126z m-6 -368 c3 -13 2 -35 -3 -48 l-9 -23 -6 25 c-7 30 -4 70 5
70 4 0 10 -11 13 -24z m16 -683 c0 -19 -13 -9 -16 12 -1 8 2 13 7 9 5 -3 9
-12 9 -21z m2560 -69 c0 -8 -5 -14 -12 -14 -6 0 -8 3 -5 7 4 3 2 12 -5 20 -8
11 -7 12 6 7 9 -3 16 -12 16 -20z m-35 -4 c-3 -5 2 -13 11 -18 15 -8 14 -15
-10 -63 -15 -30 -46 -74 -69 -97 -46 -48 -131 -97 -149 -86 -6 4 -8 3 -5 -3
14 -22 -119 -33 -359 -31 l-239 3 208 2 c168 3 207 6 207 17 0 10 20 16 70 21
130 13 245 90 296 198 13 29 24 58 24 65 0 7 5 10 10 7 6 -4 8 -10 5 -15z
m-1087 -297 c-21 -2 -57 -2 -80 0 -24 2 -7 4 37 4 44 0 63 -2 43 -4z m110 0
c-10 -2 -28 -2 -40 0 -13 2 -5 4 17 4 22 1 32 -1 23 -4z m65 0 c-7 -2 -21 -2
-30 0 -10 3 -4 5 12 5 17 0 24 -2 18 -5z"/>
<path d="M3175 3061 c-45 -11 -76 -30 -117 -69 -41 -39 -48 -71 -22 -96 21
-22 46 -20 96 6 29 15 59 22 95 22 52 -1 62 -6 150 -70 32 -23 63 -4 63 41 0
95 -157 194 -265 166z m58 -48 c-7 -2 -19 -2 -25 0 -7 3 -2 5 12 5 14 0 19 -2
13 -5z"/>
<path d="M1808 3046 c-76 -27 -132 -84 -144 -144 -12 -60 42 -84 85 -38 57 60
147 73 225 31 56 -30 68 -31 90 -6 25 27 12 63 -39 110 -63 58 -139 75 -217
47z m177 -70 c42 -32 41 -45 -3 -22 -50 26 -105 30 -160 12 -28 -10 -56 -24
-63 -32 -7 -8 -21 -20 -31 -25 -40 -21 14 43 62 73 39 26 53 29 102 26 42 -3
65 -11 93 -32z"/>
<path d="M1817 2796 c-57 -16 -130 -64 -135 -89 -5 -27 26 -32 51 -9 34 32 91
52 147 52 57 0 104 -17 155 -56 58 -44 90 -11 38 38 -68 64 -169 89 -256 64z"/>
<path d="M3119 2797 c-52 -19 -108 -56 -119 -77 -15 -29 28 -67 45 -40 4 6 30
22 58 37 39 20 67 27 113 28 53 0 68 -5 122 -38 63 -39 82 -40 82 -8 0 23 -33
53 -90 82 -54 28 -157 36 -211 16z"/>
<path d="M3316 2493 c-66 -128 -212 -261 -371 -338 -124 -60 -163 -71 -300
-85 -293 -30 -567 68 -773 278 -54 55 -87 82 -97 78 -22 -8 -18 -28 14 -72
114 -154 348 -298 551 -339 265 -54 532 -8 732 126 87 58 225 201 271 279 41
71 43 93 10 98 -16 2 -26 -5 -37 -25z"/>
<path d="M3545 2271 c-3 -10 -3 -25 0 -33 10 -25 -30 -123 -80 -198 -46 -70
-57 -78 -84 -61 -10 6 -39 -12 -101 -63 -191 -154 -370 -230 -610 -257 -325
-37 -682 92 -870 313 l-45 53 50 -40 c67 -52 75 -58 75 -53 0 3 -34 31 -75 63
-41 32 -96 87 -121 122 -26 35 -51 63 -56 63 -19 0 -48 -21 -48 -36 0 -49 121
-218 223 -311 278 -253 699 -352 1082 -253 192 49 422 196 565 362 104 120
189 298 160 333 -18 21 -57 19 -65 -4z"/>
<path d="M1894 1921 c7 -11 46 -35 46 -28 0 3 -12 12 -26 22 -15 9 -23 12 -20
6z"/>
<path d="M1950 1886 c0 -3 9 -10 20 -16 11 -6 20 -8 20 -6 0 3 -9 10 -20 16
-11 6 -20 8 -20 6z"/>
</g>
</svg>